<svg width="24" height="24" viewBox="0 0 24 24" fill="none" xmlns="http://www.w3.org/2000/svg">
<path fill-rule="evenodd" clip-rule="evenodd" d="M16 17V21C16 21.5523 15.5523 22 15 22H9C8.44772 22 8 21.5523 8 21V17H5C3.89543 17 3 16.1046 3 15V8C3 6.89543 3.89543 6 5 6H19C20.1046 6 21 6.89543 21 8V15C21 16.1046 20.1046 17 19 17H16ZM17.5 11C18.3284 11 19 10.3284 19 9.5C19 8.67157 18.3284 8 17.5 8C16.6716 8 16 8.67157 16 9.5C16 10.3284 16.6716 11 17.5 11ZM10 14V20H14V14H10Z" fill="#ECE4FF"/>
<path opacity="0.3" d="M15 2H9C8.44772 2 8 2.44772 8 3C8 3.55228 8.44772 4 9 4H15C15.5523 4 16 3.55228 16 3C16 2.44772 15.5523 2 15 2Z" fill="#ECE4FF"/>
</svg>
