<svg width="24" height="24" viewBox="0 0 24 24" fill="none" xmlns="http://www.w3.org/2000/svg">
<path opacity="0.3" fill-rule="evenodd" clip-rule="evenodd" d="M5 2H19C20.1046 2 21 2.89543 21 4V6C21 7.10457 20.1046 8 19 8H5C3.89543 8 3 7.10457 3 6V4C3 2.89543 3.89543 2 5 2ZM11 4C10.4477 4 10 4.44772 10 5C10 5.55228 10.4477 6 11 6H16C16.5523 6 17 5.55228 17 5C17 4.44772 16.5523 4 16 4H11ZM7 6C7.55228 6 8 5.55228 8 5C8 4.44772 7.55228 4 7 4C6.44772 4 6 4.44772 6 5C6 5.55228 6.44772 6 7 6Z" fill="#FFF500"/>
<path fill-rule="evenodd" clip-rule="evenodd" d="M5 9H19C20.1046 9 21 9.89543 21 11V13C21 14.1046 20.1046 15 19 15H5C3.89543 15 3 14.1046 3 13V11C3 9.89543 3.89543 9 5 9ZM11 11C10.4477 11 10 11.4477 10 12C10 12.5523 10.4477 13 11 13H16C16.5523 13 17 12.5523 17 12C17 11.4477 16.5523 11 16 11H11ZM7 13C7.55228 13 8 12.5523 8 12C8 11.4477 7.55228 11 7 11C6.44772 11 6 11.4477 6 12C6 12.5523 6.44772 13 7 13Z" fill="#FFF500"/>
<path fill-rule="evenodd" clip-rule="evenodd" d="M5 16H19C20.1046 16 21 16.8954 21 18V20C21 21.1046 20.1046 22 19 22H5C3.89543 22 3 21.1046 3 20V18C3 16.8954 3.89543 16 5 16ZM11 18C10.4477 18 10 18.4477 10 19C10 19.5523 10.4477 20 11 20H16C16.5523 20 17 19.5523 17 19C17 18.4477 16.5523 18 16 18H11ZM7 20C7.55228 20 8 19.5523 8 19C8 18.4477 7.55228 18 7 18C6.44772 18 6 18.4477 6 19C6 19.5523 6.44772 20 7 20Z" fill="#FFF500"/>
</svg>
