<svg width="24" height="24" viewBox="0 0 24 24" fill="none" xmlns="http://www.w3.org/2000/svg">
<path fill-rule="evenodd" clip-rule="evenodd" d="M13.5 21V18C13.5 17.4477 13.0523 17 12.5 17H11.5C10.9477 17 10.5 17.4477 10.5 18V21H5V4C5 2.89543 5.89543 2 7 2H17C18.1046 2 19 2.89543 19 4V21H13.5ZM9 4C8.44772 4 8 4.44772 8 5V6C8 6.55228 8.44772 7 9 7H10C10.5523 7 11 6.55228 11 6V5C11 4.44772 10.5523 4 10 4H9ZM14 4C13.4477 4 13 4.44772 13 5V6C13 6.55228 13.4477 7 14 7H15C15.5523 7 16 6.55228 16 6V5C16 4.44772 15.5523 4 15 4H14ZM9 8C8.44772 8 8 8.44772 8 9V10C8 10.5523 8.44772 11 9 11H10C10.5523 11 11 10.5523 11 10V9C11 8.44772 10.5523 8 10 8H9ZM9 12C8.44772 12 8 12.4477 8 13V14C8 14.5523 8.44772 15 9 15H10C10.5523 15 11 14.5523 11 14V13C11 12.4477 10.5523 12 10 12H9ZM14 12C13.4477 12 13 12.4477 13 13V14C13 14.5523 13.4477 15 14 15H15C15.5523 15 16 14.5523 16 14V13C16 12.4477 15.5523 12 15 12H14Z" fill="#FFF500"/>
<path d="M15 8H14C13.4477 8 13 8.44772 13 9V10C13 10.5523 13.4477 11 14 11H15C15.5523 11 16 10.5523 16 10V9C16 8.44772 15.5523 8 15 8Z" fill="white"/>
<path opacity="0.3" fill-rule="evenodd" clip-rule="evenodd" d="M4 21H20C20.5523 21 21 21.4477 21 22V22.4C21 22.7314 20.7314 23 20.4 23H3.6C3.26863 23 3 22.7314 3 22.4V22C3 21.4477 3.44772 21 4 21Z" fill="#FFF500"/>
</svg>
