<svg width="430" height="275" viewBox="0 0 430 275" fill="none" xmlns="http://www.w3.org/2000/svg">
<path d="M76.4799 272.607C80.5804 269.134 83.0711 263.649 82.4179 258.308C81.7647 252.968 77.7191 248.058 72.4712 246.924C67.2234 245.79 61.2413 248.929 59.6473 254.067C58.7701 244.162 57.7593 233.841 52.5046 225.406C47.7467 217.768 39.5058 212.303 30.5746 211.325C21.6434 210.347 12.24 214.04 6.6699 221.105C1.09983 228.17 -0.26399 238.441 3.63715 246.552C6.51098 252.527 11.8056 256.974 17.353 260.592C35.2788 272.184 56.7783 276.898 77.896 273.866L76.4799 272.607Z" fill="#F2F2F2"/>
<path d="M15.5019 214.246C22.8713 220.261 29.6319 226.99 35.686 234.333C41.741 241.669 47.0718 249.576 51.6035 257.943C54.1366 262.637 56.412 267.466 58.4198 272.408C58.8292 273.413 57.2002 273.851 56.7954 272.857C53.2392 264.143 48.8394 255.8 43.6593 247.947C38.5043 240.123 32.6041 232.818 26.0417 226.135C22.3299 222.357 18.4137 218.786 14.3108 215.439C13.4698 214.753 14.6679 213.565 15.5019 214.246Z" fill="white"/>
<path d="M321.18 0H99.1119C98.2656 0.000941092 97.4543 0.338282 96.8559 0.938016C96.2575 1.53775 95.9209 2.3509 95.9199 3.19905V154.011C95.9209 154.859 96.2575 155.673 96.8559 156.272C97.4543 156.872 98.2656 157.209 99.1119 157.21H321.18C322.026 157.209 322.837 156.872 323.436 156.272C324.034 155.673 324.371 154.859 324.372 154.011V3.19905C324.371 2.3509 324.034 1.53775 323.436 0.938016C322.837 0.338282 322.026 0.000941092 321.18 0ZM323.46 154.011C323.459 154.617 323.219 155.198 322.792 155.627C322.364 156.055 321.784 156.296 321.18 156.296H99.1119C98.5073 156.296 97.9275 156.055 97.5 155.627C97.0724 155.198 96.8321 154.617 96.8319 154.011V3.19905C96.8321 2.59309 97.0724 2.01203 97.5 1.58355C97.9275 1.15508 98.5073 0.914256 99.1119 0.914014H321.18C321.784 0.914256 322.364 1.15508 322.792 1.58355C323.219 2.01203 323.459 2.59309 323.46 3.19905V154.011Z" fill="#3F3D56"/>
<path d="M323.916 12.8145H96.376V13.7285H323.916V12.8145Z" fill="#3F3D56"/>
<path d="M104.128 9.59736C105.639 9.59736 106.864 8.36971 106.864 6.85532C106.864 5.34093 105.639 4.11328 104.128 4.11328C102.617 4.11328 101.392 5.34093 101.392 6.85532C101.392 8.36971 102.617 9.59736 104.128 9.59736Z" fill="#3F3D56"/>
<path d="M111.994 9.59736C113.505 9.59736 114.73 8.36971 114.73 6.85532C114.73 5.34093 113.505 4.11328 111.994 4.11328C110.483 4.11328 109.258 5.34093 109.258 6.85532C109.258 8.36971 110.483 9.59736 111.994 9.59736Z" fill="#3F3D56"/>
<path d="M119.859 9.59736C121.37 9.59736 122.595 8.36971 122.595 6.85532C122.595 5.34093 121.37 4.11328 119.859 4.11328C118.348 4.11328 117.123 5.34093 117.123 6.85532C117.123 8.36971 118.348 9.59736 119.859 9.59736Z" fill="#3F3D56"/>
<path d="M229.297 34.0465H190.994C190.147 34.0465 189.335 33.7095 188.737 33.1096C188.138 32.5096 187.802 31.6959 187.802 30.8475C187.802 29.999 188.138 29.1854 188.737 28.5854C189.335 27.9855 190.147 27.6484 190.994 27.6484H229.297C230.144 27.6484 230.955 27.9855 231.554 28.5854C232.153 29.1854 232.489 29.999 232.489 30.8475C232.489 31.6959 232.153 32.5096 231.554 33.1096C230.955 33.7095 230.144 34.0465 229.297 34.0465Z" fill="#CCCCCC"/>
<path d="M255.516 49.5856H164.774C163.927 49.5856 163.116 49.2486 162.517 48.6486C161.918 48.0487 161.582 47.235 161.582 46.3865C161.582 45.5381 161.918 44.7244 162.517 44.1245C163.116 43.5245 163.927 43.1875 164.774 43.1875H255.516C256.363 43.1875 257.175 43.5245 257.773 44.1245C258.372 44.7244 258.708 45.5381 258.708 46.3865C258.708 47.235 258.372 48.0487 257.773 48.6486C257.175 49.2486 256.363 49.5856 255.516 49.5856Z" fill="#CCCCCC"/>
<path d="M282.73 145.077C279.291 145.077 275.929 144.055 273.069 142.14C270.209 140.225 267.98 137.503 266.664 134.318C265.347 131.133 265.003 127.629 265.674 124.248C266.345 120.867 268.001 117.761 270.433 115.324C272.866 112.886 275.964 111.226 279.338 110.554C282.711 109.881 286.208 110.226 289.385 111.545C292.563 112.865 295.279 115.099 297.19 117.965C299.101 120.831 300.121 124.201 300.121 127.648C300.116 132.269 298.282 136.699 295.022 139.967C291.761 143.234 287.341 145.072 282.73 145.077ZM282.73 111.421C279.528 111.421 276.398 112.372 273.735 114.156C271.072 115.939 268.997 118.473 267.772 121.438C266.546 124.403 266.226 127.666 266.85 130.814C267.475 133.962 269.017 136.853 271.281 139.122C273.546 141.392 276.431 142.937 279.572 143.564C282.712 144.19 285.968 143.868 288.926 142.64C291.885 141.412 294.414 139.332 296.193 136.663C297.972 133.995 298.922 130.857 298.922 127.648C298.917 123.346 297.209 119.221 294.174 116.179C291.139 113.137 287.023 111.426 282.73 111.421Z" fill="#3F3D56"/>
<path d="M136.934 98.3976C133.494 98.3976 130.132 97.3754 127.272 95.4603C124.412 93.5451 122.183 90.8231 120.867 87.6383C119.55 84.4535 119.206 80.949 119.877 77.5681C120.548 74.1871 122.204 71.0815 124.637 68.644C127.069 66.2065 130.167 64.5465 133.541 63.874C136.914 63.2015 140.411 63.5466 143.589 64.8658C146.766 66.185 149.482 68.4189 151.393 71.2852C153.304 74.1514 154.324 77.5212 154.324 80.9684C154.319 85.5893 152.485 90.0195 149.225 93.287C145.965 96.5545 141.544 98.3924 136.934 98.3976ZM136.934 64.7411C133.731 64.7411 130.601 65.6928 127.938 67.4759C125.276 69.259 123.2 71.7933 121.975 74.7585C120.749 77.7236 120.429 80.9864 121.053 84.1341C121.678 87.2819 123.22 90.1734 125.485 92.4428C127.749 94.7122 130.634 96.2577 133.775 96.8838C136.916 97.51 140.171 97.1886 143.13 95.9604C146.088 94.7322 148.617 92.6523 150.396 89.9837C152.175 87.3152 153.125 84.1778 153.125 80.9684C153.12 76.6661 151.412 72.5415 148.377 69.4993C145.342 66.4572 141.226 64.746 136.934 64.7411Z" fill="#3F3D56"/>
<path d="M143.689 90.2073C143.234 90.2074 142.797 90.0264 142.475 89.704C142.152 89.3815 141.971 88.9441 141.97 88.4877V78.7085C141.971 78.2526 142.152 77.8155 142.473 77.4932C142.795 77.1708 143.231 76.9895 143.686 76.9889H143.689C144.144 76.9895 144.58 77.1708 144.902 77.4932C145.223 77.8155 145.404 78.2526 145.405 78.7085V88.4877C145.404 88.9436 145.223 89.3807 144.902 89.7031C144.58 90.0254 144.144 90.2068 143.689 90.2073ZM139.209 90.2073C138.982 90.2096 138.757 90.1668 138.546 90.0815C138.336 89.9962 138.144 89.8701 137.982 89.7102C137.82 89.5504 137.692 89.3602 137.604 89.1503C137.516 88.9405 137.47 88.7154 137.469 88.4877V83.2199C137.469 82.764 137.65 82.327 137.972 82.0047C138.294 81.6823 138.73 81.501 139.184 81.5005H139.209C139.664 81.501 140.1 81.6823 140.422 82.0047C140.743 82.327 140.924 82.764 140.925 83.2199V88.4877C140.924 88.9436 140.743 89.3807 140.422 89.7031C140.1 90.0254 139.664 90.2068 139.209 90.2073ZM134.686 90.2073C134.231 90.2074 133.794 90.0264 133.472 89.704C133.149 89.3815 132.968 88.9441 132.967 88.4877V73.4481C132.968 72.9922 133.149 72.5551 133.47 72.2328C133.792 71.9104 134.228 71.729 134.683 71.7285H134.686C135.141 71.729 135.577 71.9104 135.899 72.2328C136.22 72.5551 136.401 72.9922 136.402 73.4481V88.4877C136.401 88.9436 136.22 89.3807 135.899 89.7031C135.577 90.0254 135.141 90.2068 134.686 90.2073ZM130.18 90.2073C129.955 90.2075 129.731 90.1632 129.523 90.0768C129.314 89.9904 129.125 89.8637 128.966 89.7038C128.806 89.544 128.68 89.3542 128.593 89.1453C128.507 88.9364 128.463 88.7125 128.463 88.4865L128.465 86.2276C128.465 85.7716 128.646 85.3343 128.968 85.012C129.29 84.6897 129.726 84.5087 130.181 84.5089C130.636 84.5091 131.072 84.6904 131.394 85.013C131.716 85.3356 131.896 85.773 131.896 86.2291V88.4877C131.895 88.9436 131.715 89.3807 131.393 89.7031C131.071 90.0254 130.635 90.2068 130.18 90.2073Z" fill="#C8C5FF"/>
<path d="M400.744 273.888C397.305 273.888 393.942 272.866 391.082 270.951C388.223 269.035 385.994 266.313 384.677 263.128C383.361 259.944 383.017 256.439 383.688 253.058C384.359 249.677 386.015 246.572 388.447 244.134C390.879 241.697 393.978 240.037 397.351 239.364C400.725 238.692 404.221 239.037 407.399 240.356C410.577 241.675 413.293 243.909 415.204 246.775C417.115 249.642 418.135 253.011 418.135 256.459C418.129 261.08 416.296 265.51 413.035 268.777C409.775 272.045 405.355 273.883 400.744 273.888ZM400.744 240.231C397.542 240.231 394.411 241.183 391.749 242.966C389.086 244.749 387.011 247.284 385.785 250.249C384.56 253.214 384.239 256.477 384.864 259.624C385.489 262.772 387.031 265.664 389.295 267.933C391.56 270.202 394.445 271.748 397.585 272.374C400.726 273 403.982 272.679 406.94 271.451C409.899 270.222 412.427 268.143 414.207 265.474C415.986 262.805 416.935 259.668 416.935 256.459C416.93 252.156 415.223 248.032 412.188 244.99C409.152 241.947 405.037 240.236 400.744 240.231Z" fill="#3F3D56"/>
<path d="M405.538 253.434L402.148 258.629C402.42 258.961 402.568 259.377 402.567 259.806C402.566 260.302 402.369 260.776 402.019 261.126C401.67 261.476 401.196 261.673 400.701 261.673C400.207 261.673 399.733 261.476 399.383 261.126C399.034 260.776 398.837 260.302 398.836 259.806C398.837 259.686 398.848 259.566 398.868 259.447L396.631 258.141C396.342 258.422 395.97 258.601 395.571 258.651C395.172 258.701 394.767 258.621 394.418 258.421L392.037 260.657V262.885C392.038 263.326 392.213 263.748 392.523 264.06C392.834 264.372 393.255 264.548 393.695 264.55H407.79C408.23 264.548 408.652 264.372 408.963 264.06C409.274 263.748 409.45 263.326 409.452 262.885V254.621L407.174 253.104C406.946 253.282 406.679 253.404 406.395 253.461C406.111 253.519 405.818 253.509 405.538 253.434H405.538Z" fill="#C8C5FF"/>
<path d="M395.338 254.941C395.833 254.941 396.307 255.138 396.657 255.488C397.007 255.839 397.203 256.314 397.203 256.81V257.051L399.538 258.36C399.871 258.086 400.288 257.937 400.719 257.937C400.855 257.938 400.991 257.952 401.124 257.98L404.521 252.709C404.352 252.47 404.241 252.194 404.198 251.904C404.154 251.614 404.18 251.318 404.273 251.04C404.365 250.761 404.522 250.509 404.731 250.303C404.939 250.097 405.193 249.943 405.472 249.854C405.751 249.765 406.046 249.743 406.335 249.791C406.624 249.838 406.898 249.953 407.134 250.126C407.37 250.3 407.562 250.526 407.694 250.788C407.826 251.05 407.895 251.339 407.894 251.632C407.894 251.781 407.877 251.929 407.844 252.074L409.451 253.15V250.032C409.45 249.591 409.274 249.169 408.963 248.857C408.652 248.545 408.23 248.369 407.79 248.367H393.695C393.255 248.369 392.834 248.545 392.523 248.857C392.213 249.169 392.038 249.591 392.037 250.032V258.963L393.591 257.47C393.487 257.188 393.453 256.885 393.491 256.587C393.529 256.289 393.639 256.004 393.81 255.758C393.982 255.511 394.21 255.309 394.476 255.17C394.742 255.031 395.038 254.959 395.338 254.959V254.941Z" fill="#C8C5FF"/>
<path d="M210.835 98.3976C207.395 98.3976 204.033 97.3754 201.173 95.4603C198.313 93.5451 196.084 90.8231 194.768 87.6383C193.452 84.4535 193.107 80.949 193.778 77.5681C194.45 74.1871 196.106 71.0815 198.538 68.644C200.97 66.2065 204.069 64.5465 207.442 63.874C210.816 63.2015 214.312 63.5466 217.49 64.8658C220.668 66.185 223.384 68.4189 225.295 71.2852C227.205 74.1514 228.225 77.5212 228.225 80.9684C228.22 85.5893 226.386 90.0195 223.126 93.287C219.866 96.5545 215.446 98.3924 210.835 98.3976ZM210.835 64.7411C207.633 64.7411 204.502 65.6928 201.84 67.4759C199.177 69.259 197.102 71.7933 195.876 74.7585C194.651 77.7236 194.33 80.9864 194.955 84.1341C195.58 87.2819 197.122 90.1734 199.386 92.4428C201.65 94.7122 204.535 96.2577 207.676 96.8838C210.817 97.51 214.072 97.1886 217.031 95.9604C219.99 94.7322 222.518 92.6523 224.297 89.9837C226.077 87.3152 227.026 84.1778 227.026 80.9684C227.021 76.6661 225.314 72.5415 222.278 69.4993C219.243 66.4572 215.128 64.746 210.835 64.7411Z" fill="#3F3D56"/>
<path d="M201.596 87.2854C201.346 87.2853 201.102 87.2111 200.894 87.0719C200.686 86.9328 200.524 86.7351 200.429 86.5037C200.333 86.2724 200.308 86.0178 200.356 85.7721C200.405 85.5263 200.525 85.3005 200.701 85.1231L207.127 78.6651C207.227 78.564 207.346 78.4839 207.477 78.4293C207.608 78.3747 207.749 78.3468 207.891 78.3471H207.891C208.033 78.3467 208.174 78.3745 208.305 78.4289C208.436 78.4833 208.555 78.5632 208.655 78.664L211.635 81.6508C211.695 81.7113 211.767 81.7593 211.845 81.7919C211.924 81.8246 212.008 81.8413 212.093 81.841H212.094C212.179 81.8413 212.263 81.8246 212.342 81.7919C212.421 81.7592 212.492 81.7111 212.552 81.6506L216.759 77.4267C216.779 77.4065 216.795 77.3827 216.806 77.3564C216.817 77.3301 216.823 77.302 216.822 77.2735C216.822 77.2451 216.817 77.217 216.806 77.1907C216.795 77.1645 216.779 77.1406 216.759 77.1205L215.398 75.7585C215.307 75.6677 215.245 75.552 215.22 75.426C215.195 75.3 215.208 75.1693 215.257 75.0506C215.306 74.9318 215.389 74.8303 215.495 74.7589C215.602 74.6875 215.727 74.6494 215.855 74.6494H220.691C220.862 74.6496 221.027 74.7181 221.149 74.8398C221.27 74.9616 221.338 75.1267 221.339 75.2989V80.1418C221.339 80.2702 221.301 80.3958 221.23 80.5026C221.158 80.6095 221.057 80.6927 220.939 80.7419C220.82 80.7911 220.69 80.804 220.564 80.7789C220.439 80.7538 220.323 80.692 220.232 80.6011L218.869 79.2346C218.849 79.2145 218.825 79.1986 218.799 79.1877C218.773 79.1768 218.745 79.1712 218.716 79.1712C218.688 79.1712 218.66 79.1768 218.634 79.1877C218.608 79.1986 218.584 79.2145 218.564 79.2346L212.866 84.9409C212.766 85.0417 212.647 85.1216 212.516 85.176C212.385 85.2304 212.245 85.2582 212.103 85.2578H212.103C211.961 85.2582 211.82 85.2303 211.689 85.1759C211.558 85.1215 211.439 85.0415 211.339 84.9407L208.357 81.9525C208.234 81.8344 208.07 81.7685 207.899 81.7685C207.729 81.7685 207.564 81.8344 207.441 81.9525L202.49 86.914C202.373 87.0321 202.234 87.1257 202.081 87.1895C201.927 87.2532 201.763 87.2858 201.596 87.2854Z" fill="#C8C5FF"/>
<path d="M210.835 144.098C207.395 144.098 204.033 143.076 201.173 141.16C198.313 139.245 196.084 136.523 194.768 133.338C193.452 130.154 193.107 126.649 193.778 123.268C194.45 119.887 196.106 116.782 198.538 114.344C200.97 111.907 204.069 110.247 207.442 109.574C210.816 108.902 214.312 109.247 217.49 110.566C220.668 111.885 223.384 114.119 225.295 116.985C227.205 119.852 228.225 123.221 228.225 126.669C228.22 131.289 226.386 135.72 223.126 138.987C219.866 142.255 215.446 144.093 210.835 144.098Z" fill="#E6E6E6"/>
<path d="M282.882 97.0266C279.442 97.0266 276.08 96.0043 273.22 94.0892C270.36 92.174 268.131 89.452 266.815 86.2672C265.499 83.0824 265.154 79.5779 265.825 76.197C266.496 72.816 268.153 69.7104 270.585 67.2729C273.017 64.8354 276.116 63.1754 279.489 62.5029C282.863 61.8304 286.359 62.1755 289.537 63.4947C292.715 64.8139 295.431 67.0478 297.342 69.9141C299.252 72.7803 300.272 76.1501 300.272 79.5973C300.267 84.2182 298.433 88.6484 295.173 91.9159C291.913 95.1834 287.492 97.0213 282.882 97.0266Z" fill="#E6E6E6"/>
<path d="M136.935 109.239C133.949 109.243 131.015 110.014 128.412 111.479C132.174 111.812 135.701 113.452 138.384 116.116C141.067 118.779 142.737 122.299 143.105 126.066C143.473 129.833 142.515 133.61 140.399 136.745C138.282 139.879 135.139 142.174 131.513 143.231C132.192 143.457 132.885 143.639 133.588 143.775C134.69 143.993 135.811 144.101 136.935 144.1C141.547 144.1 145.971 142.263 149.232 138.995C152.494 135.726 154.326 131.292 154.326 126.67C154.326 122.047 152.494 117.613 149.232 114.344C145.971 111.076 141.547 109.239 136.935 109.239Z" fill="#E6E6E6"/>
<path d="M130.336 110.546C129.234 110.325 128.113 110.214 126.989 110.217C122.518 110.212 118.216 111.932 114.975 115.02C111.734 118.108 109.804 122.327 109.583 126.804C109.362 131.28 110.868 135.669 113.789 139.063C116.71 142.456 120.821 144.593 125.272 145.03C129.722 145.468 134.17 144.172 137.693 141.413C141.216 138.653 143.544 134.64 144.195 130.206C144.846 125.772 143.77 121.258 141.19 117.597C138.61 113.937 134.724 111.412 130.336 110.546ZM131.513 143.231C129.286 143.88 126.945 144.042 124.65 143.707C122.355 143.371 120.159 142.545 118.21 141.284C116.261 140.024 114.605 138.358 113.354 136.401C112.103 134.443 111.286 132.239 110.959 129.938C110.632 127.636 110.802 125.291 111.457 123.061C112.113 120.831 113.239 118.769 114.759 117.013C116.278 115.257 118.157 113.849 120.267 112.884C122.377 111.918 124.67 111.419 126.989 111.419C127.468 111.419 127.942 111.442 128.412 111.478C132.174 111.811 135.701 113.452 138.384 116.115C141.067 118.779 142.737 122.299 143.105 126.065C143.472 129.832 142.515 133.61 140.399 136.744C138.282 139.879 135.139 142.173 131.513 143.231Z" fill="#3F3D56"/>
<path d="M137.115 124.579C136.54 122.054 134.989 119.861 132.802 118.481C130.616 117.101 127.972 116.647 125.451 117.219C125.205 117.275 124.95 117.344 124.726 117.414L127.05 127.649L137.262 125.324C137.219 125.086 137.171 124.826 137.115 124.579Z" fill="#C8C5FF"/>
<path d="M136.126 127.121L125.909 129.446L123.589 119.211C121.808 119.763 120.222 120.816 119.019 122.244C117.817 123.673 117.048 125.416 116.804 127.269C116.561 129.122 116.852 131.006 117.644 132.698C118.436 134.389 119.696 135.818 121.274 136.814C122.851 137.81 124.681 138.332 126.545 138.318C128.41 138.304 130.231 137.754 131.794 136.733C133.356 135.713 134.594 134.266 135.36 132.562C136.126 130.858 136.389 128.97 136.117 127.121H136.126Z" fill="#C8C5FF"/>
<path d="M315.654 209.058C312.215 209.058 308.852 208.036 305.993 206.12C303.133 204.205 300.904 201.483 299.587 198.298C298.271 195.114 297.927 191.609 298.598 188.228C299.269 184.847 300.925 181.742 303.357 179.304C305.789 176.867 308.888 175.207 312.262 174.534C315.635 173.862 319.132 174.207 322.309 175.526C325.487 176.845 328.203 179.079 330.114 181.945C332.025 184.812 333.045 188.181 333.045 191.629C333.04 196.249 331.206 200.68 327.946 203.947C324.685 207.215 320.265 209.053 315.654 209.058ZM315.654 175.401C312.452 175.401 309.322 176.353 306.659 178.136C303.996 179.919 301.921 182.453 300.696 185.419C299.47 188.384 299.149 191.647 299.774 194.794C300.399 197.942 301.941 200.834 304.205 203.103C306.47 205.372 309.355 206.918 312.496 207.544C315.636 208.17 318.892 207.849 321.85 206.621C324.809 205.392 327.338 203.312 329.117 200.644C330.896 197.975 331.845 194.838 331.845 191.629C331.841 187.326 330.133 183.202 327.098 180.159C324.062 177.117 319.947 175.406 315.654 175.401Z" fill="#3F3D56"/>
<path d="M323.157 198.613C322.521 198.613 321.899 198.425 321.369 198.07C320.84 197.716 320.427 197.213 320.183 196.624C319.939 196.034 319.875 195.386 319.998 194.76C320.122 194.134 320.428 193.559 320.878 193.108C321.328 192.657 321.901 192.349 322.525 192.224C323.15 192.099 323.797 192.163 324.385 192.406C324.973 192.65 325.476 193.063 325.83 193.593C326.184 194.124 326.373 194.747 326.374 195.385C326.374 196.24 326.035 197.061 325.432 197.666C324.829 198.271 324.011 198.612 323.157 198.613ZM315.654 198.613C314.801 198.612 313.983 198.272 313.381 197.668C312.778 197.063 312.438 196.244 312.437 195.39V187.869C312.438 187.015 312.778 186.196 313.381 185.592C313.984 184.988 314.801 184.649 315.654 184.649C316.506 184.649 317.323 184.988 317.927 185.592C318.53 186.196 318.869 187.015 318.87 187.869V195.39C318.869 196.244 318.53 197.063 317.927 197.668C317.324 198.272 316.506 198.612 315.654 198.613ZM308.152 198.613C307.299 198.612 306.481 198.272 305.877 197.667C305.274 197.062 304.935 196.242 304.934 195.387V192.382C304.934 191.527 305.273 190.707 305.876 190.102C306.48 189.497 307.298 189.157 308.152 189.157C309.006 189.157 309.824 189.497 310.428 190.102C311.031 190.707 311.37 191.527 311.37 192.382V195.387C311.369 196.242 311.03 197.062 310.427 197.667C309.823 198.272 309.005 198.612 308.152 198.613Z" fill="#C8C5FF"/>
<path d="M95.1336 269.825L100.434 269.222L100.637 248.444L92.8135 249.334L95.1336 269.825Z" fill="#A0616A"/>
<path d="M111.216 272.992L94.5566 274.887L93.8262 268.436L104.049 267.273C105.756 267.079 107.47 267.573 108.814 268.645C110.158 269.718 111.022 271.281 111.216 272.992L111.216 272.992Z" fill="#2F2E41"/>
<path d="M40.6201 269.493L45.9548 269.493L48.4924 248.87H43L40.6201 269.493Z" fill="#A0616A"/>
<path d="M56.2432 274.457L39.4771 274.458L39.4768 267.966L49.7651 267.965C51.4831 267.965 53.1308 268.649 54.3456 269.866C55.5605 271.084 56.2431 272.735 56.2432 274.457L56.2432 274.457Z" fill="#2F2E41"/>
<path d="M78.8952 177.271L81.9411 187.2L98.4763 223.062L102 267L94 268.5L86.7276 226.114L65.8411 203.437L47 268.5H40C40 268.5 46.26 185.12 55.833 177.271C55.833 177.271 71.4979 169.857 78.8952 177.271Z" fill="#DCB013"/>
<path d="M65.3837 134.425C71.2862 134.425 76.0711 129.63 76.0711 123.714C76.0711 117.798 71.2862 113.003 65.3837 113.003C59.4812 113.003 54.6963 117.798 54.6963 123.714C54.6963 129.63 59.4812 134.425 65.3837 134.425Z" fill="#FFB8B8"/>
<path d="M79.9828 179.233C79.9828 179.233 81.2882 134.75 63.0125 137.803C44.7368 140.855 52.3516 183.812 52.3516 183.812C52.3516 183.812 57.5 184.614 65.8408 182.939C75.5 181 79.9828 179.233 79.9828 179.233Z" fill="#DCB013"/>
<path d="M80 181.5V178.5L66 182L52 183V185C60 186.6 74 183.333 80 181.5Z" fill="#303030"/>
<path d="M117.818 142.208C117.475 142.749 117.017 143.208 116.478 143.553C115.939 143.898 115.331 144.12 114.696 144.204C114.062 144.288 113.417 144.231 112.807 144.038C112.197 143.845 111.637 143.52 111.166 143.087L97.4766 150.478L98.1933 142.412L111.083 136.629C111.862 135.884 112.887 135.451 113.963 135.413C115.04 135.374 116.093 135.733 116.923 136.421C117.753 137.108 118.302 138.077 118.467 139.144C118.632 140.211 118.401 141.301 117.818 142.208L117.818 142.208Z" fill="#FFB8B8"/>
<path d="M65.2819 143.234L87.5028 146.999L107.416 137.577L110.439 144.056L88.6401 157.972C88.6401 157.972 65.5613 159.543 60.2256 153.443C58.2246 151.156 57.9959 149.074 58.4916 147.365C58.9258 145.965 59.8558 144.772 61.1065 144.011C62.3571 143.25 63.8421 142.974 65.2819 143.234Z" fill="#DCB013"/>
<path d="M64.1126 134.969C64.1636 134.923 64.2033 134.866 64.2284 134.802C64.2536 134.738 64.2635 134.669 64.2575 134.6C64.2515 134.532 64.2296 134.466 64.1936 134.407C64.1576 134.349 64.1085 134.3 64.0503 134.264C63.1012 133.675 62.328 132.84 61.8118 131.848C61.2956 130.856 61.0555 129.743 61.1168 128.626C61.1781 127.509 61.5384 126.429 62.1599 125.5C62.7815 124.57 63.6413 123.826 64.6491 123.345C67.7912 121.843 72.049 123.011 74.3718 120.126C74.8442 119.509 75.1782 118.797 75.3511 118.038C75.524 117.28 75.5317 116.493 75.3737 115.731C74.8725 113.006 72.8285 110.982 70.5393 109.595C67.7272 107.892 64.4952 107.011 61.2094 107.054C57.9237 107.097 54.7157 108.061 51.9487 109.838C49.1818 111.614 46.9666 114.132 45.5542 117.106C44.1417 120.079 43.5885 123.39 43.9572 126.662C44.2527 129.285 45.0602 132.226 43.5041 134.355C42.1346 136.229 39.5495 136.581 37.2787 137.047C32.4082 138.045 27.7094 140.35 24.4041 144.071C21.0989 147.793 19.3357 153.015 20.3322 157.897C21.3287 162.778 25.3267 167.068 30.2405 167.825C34.2401 168.44 38.37 166.738 41.3071 163.948C44.2442 161.159 46.1007 157.391 47.2717 153.509C48.6616 148.902 49.2099 143.937 51.7192 139.832C54.1747 135.816 59.4663 132.937 63.6136 135.028C63.6931 135.07 63.7833 135.087 63.8723 135.076C63.9614 135.065 64.0451 135.028 64.1126 134.969Z" fill="#2F2E41"/>
<path d="M373.826 214.251C374.404 213.963 374.913 213.551 375.315 213.044C375.717 212.538 376.004 211.949 376.154 211.319C376.305 210.69 376.316 210.035 376.187 209.4C376.058 208.766 375.791 208.168 375.406 207.648L385.703 150.533L376.094 150.406L368.943 206.885C368.115 207.591 367.573 208.577 367.421 209.657C367.27 210.736 367.518 211.834 368.12 212.742C368.722 213.65 369.635 214.305 370.687 214.583C371.738 214.861 372.855 214.743 373.826 214.251H373.826Z" fill="#FFB8B8"/>
<path d="M344.002 211.545L340.354 228.911L340.81 267.757H347.65L350.842 229.825L355.858 213.83L344.002 211.545Z" fill="#FFB8B8"/>
<path d="M366.608 212.848L362.96 230.214L363.416 269.06H370.256L373.448 231.128L378.464 215.133L366.608 212.848Z" fill="#FFB8B8"/>
<path d="M338.422 267.315L349.203 267.288L349.22 274.091L331.651 274.135C331.649 273.242 331.822 272.357 332.161 271.531C332.5 270.704 332.998 269.953 333.627 269.32C334.256 268.686 335.003 268.183 335.826 267.839C336.648 267.495 337.531 267.317 338.422 267.315Z" fill="#2F2E41"/>
<path d="M361.195 268.049L371.977 268.022L371.994 274.826L354.424 274.87C354.422 273.976 354.595 273.091 354.934 272.265C355.274 271.439 355.772 270.687 356.4 270.054C357.029 269.421 357.776 268.918 358.599 268.574C359.422 268.23 360.304 268.052 361.195 268.049Z" fill="#2F2E41"/>
<path d="M360.647 126.378C366.832 126.378 371.847 121.352 371.847 115.153C371.847 108.954 366.832 103.929 360.647 103.929C354.462 103.929 349.447 108.954 349.447 115.153C349.447 121.352 354.462 126.378 360.647 126.378Z" fill="#FFB8B8"/>
<path d="M385.397 142.916C381.99 137.557 371.291 124.849 355.372 132.144C354.117 132.725 353.071 133.677 352.372 134.872C351.674 136.068 351.357 137.448 351.465 138.829C352.235 149.02 354.292 175.442 346 190.979C346 190.979 369.083 197.834 382.306 190.979C382.306 190.979 377.746 160.359 382.306 154.418C383.827 152.52 385.058 150.406 385.96 148.145C386.277 147.289 386.391 146.372 386.293 145.464C386.195 144.557 385.889 143.684 385.397 142.916Z" fill="#DCB013"/>
<path d="M380.938 142.536L385.413 144.405C385.711 144.529 385.967 144.736 386.152 145.002C386.336 145.267 386.441 145.58 386.455 145.903L386.866 155.789L376.834 154.875L380.938 142.536Z" fill="#DCB013"/>
<path d="M346.738 189.607C346.738 189.607 336.706 208.345 338.53 225.711V267.5H348L352.666 227.996L362.698 203.775L360.418 228.453V267.5H371L375.01 228.91C375.01 228.91 384.585 193.263 381.393 190.064L346.738 189.607Z" fill="#DCB013"/>
<path d="M332.491 191.28C333.129 191.182 333.739 190.945 334.276 190.586C334.813 190.227 335.265 189.753 335.601 189.2C335.936 188.646 336.146 188.026 336.216 187.382C336.286 186.739 336.214 186.087 336.006 185.474L356.356 147.026L347.243 143.968L330.083 182.772C329.079 183.191 328.263 183.965 327.79 184.947C327.317 185.928 327.219 187.05 327.516 188.098C327.813 189.147 328.483 190.05 329.4 190.637C330.317 191.223 331.417 191.452 332.491 191.28H332.491Z" fill="#FFB8B8"/>
<path d="M359.134 136.619L355.365 134.929C355.365 134.929 352.169 132.943 349.336 137.312C346.504 141.681 343.443 151.256 343.443 151.256L355.742 154.725L359.134 136.619Z" fill="#DCB013"/>
<path d="M362.44 120.558C362.842 119.158 362.726 117.265 361.373 116.736C360.667 116.46 359.88 116.677 359.127 116.755C357.654 116.9 356.179 116.493 354.987 115.612C353.587 114.569 352.722 112.975 351.901 111.432L350.658 109.099C350.382 108.612 350.146 108.104 349.954 107.578C349.263 105.519 350.013 103.134 351.549 101.6C353.155 100.103 355.267 99.273 357.46 99.2774C359.636 99.293 361.785 99.7545 363.776 100.633C367.315 102.079 370.52 104.237 373.194 106.974C374.941 108.766 376.532 111.1 376.167 113.578C375.883 115.507 374.48 117.052 373.141 118.468L368.287 123.603C367.428 124.513 366.509 125.459 365.309 125.809C364.109 126.159 362.562 125.645 362.235 124.436C362.235 124.436 362.038 121.957 362.44 120.558Z" fill="#2F2E41"/>
<path d="M429.544 275H0.455992C0.335055 275 0.219071 274.952 0.133556 274.866C0.0480415 274.78 0 274.664 0 274.543C0 274.422 0.0480415 274.306 0.133556 274.22C0.219071 274.134 0.335055 274.086 0.455992 274.086H429.544C429.665 274.086 429.781 274.134 429.866 274.22C429.952 274.306 430 274.422 430 274.543C430 274.664 429.952 274.78 429.866 274.866C429.781 274.952 429.665 275 429.544 275Z" fill="#3F3D56"/>
<path d="M289.115 134.96H276.347C275.985 134.96 275.637 134.815 275.38 134.558C275.124 134.301 274.979 133.952 274.979 133.589C274.979 133.225 275.124 132.876 275.38 132.619C275.637 132.362 275.985 132.218 276.347 132.218H289.115C289.478 132.218 289.826 132.362 290.083 132.619C290.339 132.876 290.483 133.225 290.483 133.589C290.483 133.952 290.339 134.301 290.083 134.558C289.826 134.815 289.478 134.96 289.115 134.96Z" fill="#C8C5FF"/>
<path d="M289.115 129.019H276.347C275.985 129.019 275.637 128.875 275.38 128.618C275.124 128.361 274.979 128.012 274.979 127.648C274.979 127.285 275.124 126.936 275.38 126.679C275.637 126.422 275.985 126.277 276.347 126.277H289.115C289.478 126.277 289.826 126.422 290.083 126.679C290.339 126.936 290.483 127.285 290.483 127.648C290.483 128.012 290.339 128.361 290.083 128.618C289.826 128.875 289.478 129.019 289.115 129.019Z" fill="#C8C5FF"/>
<path d="M289.115 123.078H276.347C275.985 123.078 275.637 122.934 275.38 122.676C275.124 122.419 274.979 122.071 274.979 121.707C274.979 121.343 275.124 120.995 275.38 120.738C275.637 120.48 275.985 120.336 276.347 120.336H289.115C289.478 120.336 289.826 120.48 290.083 120.738C290.339 120.995 290.483 121.343 290.483 121.707C290.483 122.071 290.339 122.419 290.083 122.676C289.826 122.934 289.478 123.078 289.115 123.078Z" fill="#C8C5FF"/>
<path d="M381.5 185.5C372.3 187.5 355.667 186.333 348.5 185.5L347 189C351 190.6 370.5 191.5 382.5 189L381.5 185.5Z" fill="#2F2E41"/>
</svg>
